<svg xmlns="http://www.w3.org/2000/svg" width="233" height="212" fill="none" viewBox="0 0 233 212">
  <path fill="#8DD3BB" d="M183.982 67.913c-12.017-25.07-37.068-42.349-70.485-42.349-47.725 0-77.492 35.24-77.492 78.091 0 27.358 11.726 51.416 32.7 65.361 1.195-.894 1.915-1.475 1.915-1.475A530.455 530.455 0 0 0 101.219 146c-18.712-5.506-28.161-23.411-28.161-42.345 0-22.482 14.003-44.368 40.71-44.368 23.518 0 38.906 19.496 40.561 40.589a528.867 528.867 0 0 0 29.653-31.963Zm-73.971 113.762a529.946 529.946 0 0 0 81.643-71.489c-2.826 40.09-31.719 71.561-77.859 71.561-1.275 0-2.536-.024-3.784-.072Z"/>
  <path fill="#8DD3BB" d="M214.201 4.572c-37.866-13.923-65.087 16.035-65.087 16.035l25.813 15.006c9.669-5.553 13.976-.162 15.086 2.79.786 2.086-.27 4.361-1.11 5.607l-6.284 7.937A529.412 529.412 0 0 1 64.336 157.423s-13.434 10.834-20.585 10.997c-6.013.135-8.694-4.93-3.63-12.189l-12.458-28.116S-4.76 149.351 1.525 186.676c2.654 15.765 17.47 26.979 33.207 24.135 8.044-1.436 17.985-5.363 30.146-13.408l22.373-14.627A529.79 529.79 0 0 0 205.533 77.083l7.693-9.29c11.592-13.192 16.793-24.054 18.553-32.64 2.709-13.137-5.065-25.977-17.578-30.581Z"/>
</svg>
