<svg xmlns="http://www.w3.org/2000/svg" width="20" height="21" fill="none" viewBox="0 0 20 21">
  <path fill="#121" d="M19.703 4.261a7.773 7.773 0 0 1-2.23.611 3.891 3.891 0 0 0 1.707-2.148 7.75 7.75 0 0 1-2.465.942A3.883 3.883 0 0 0 10.1 7.207a11.024 11.024 0 0 1-8-4.056 3.883 3.883 0 0 0 1.2 5.183 3.873 3.873 0 0 1-1.759-.486v.05a3.883 3.883 0 0 0 3.114 3.807 3.91 3.91 0 0 1-1.753.066 3.885 3.885 0 0 0 3.627 2.695A7.79 7.79 0 0 1 .78 16.075a10.98 10.98 0 0 0 5.95 1.744c7.142 0 11.046-5.915 11.046-11.045 0-.167-.004-.335-.012-.502A7.892 7.892 0 0 0 19.7 4.264l.002-.003Z"/>
</svg>
