<svg xmlns="http://www.w3.org/2000/svg" width="20" height="21" fill="none" viewBox="0 0 20 21">
  <g clip-path="url(#a)">
    <path fill="#121" d="M19.583 5.57a2.322 2.322 0 0 0-.638-1.059 2.542 2.542 0 0 0-1.116-.618c-1.564-.413-7.834-.413-7.834-.413a63.852 63.852 0 0 0-7.825.392 2.633 2.633 0 0 0-1.115.633A2.414 2.414 0 0 0 .406 5.57 24.242 24.242 0 0 0 0 10.147c-.01 1.534.125 3.067.406 4.579.114.399.337.763.646 1.057.31.294.694.507 1.118.62 1.585.41 7.825.41 7.825.41 2.617.03 5.233-.1 7.835-.39a2.555 2.555 0 0 0 1.115-.62c.304-.288.524-.654.637-1.058A23.65 23.65 0 0 0 20 10.166a22.148 22.148 0 0 0-.417-4.597ZM8 13V7.296l5.217 2.853L8 13.001Z"/>
  </g>
  <defs>
    <clipPath id="a">
      <path fill="#fff" d="M0 .147h20v20H0z"/>
    </clipPath>
  </defs>
</svg>
