<svg xmlns="http://www.w3.org/2000/svg" width="20" height="21" fill="none" viewBox="0 0 20 21">
  <path fill="#121" d="M9.498 7.665A2.84 2.84 0 0 0 6.663 10.5a2.84 2.84 0 0 0 2.835 2.835 2.84 2.84 0 0 0 2.834-2.835 2.84 2.84 0 0 0-2.834-2.835Zm8.501 2.835c0-1.174.011-2.337-.055-3.509-.066-1.36-.376-2.568-1.371-3.564-.998-.997-2.204-1.305-3.564-1.371C11.835 1.99 10.672 2 9.5 2c-1.174 0-2.337-.011-3.509.055-1.36.066-2.568.376-3.564 1.371-.997.998-1.305 2.203-1.371 3.564C.99 8.165 1 9.328 1 10.5c0 1.172-.011 2.337.055 3.509.066 1.36.376 2.568 1.371 3.564.998.997 2.203 1.305 3.564 1.371C7.165 19.01 8.328 19 9.5 19c1.174 0 2.337.011 3.509-.055 1.36-.066 2.568-.376 3.564-1.371.997-.998 1.305-2.204 1.371-3.564.068-1.172.055-2.335.055-3.509Zm-8.501 4.361A4.355 4.355 0 0 1 5.137 10.5a4.355 4.355 0 0 1 4.36-4.361A4.355 4.355 0 0 1 13.86 10.5a4.355 4.355 0 0 1-4.361 4.361Zm4.54-7.882a1.017 1.017 0 0 1-1.019-1.019c0-.563.455-1.019 1.019-1.019a1.017 1.017 0 1 1 0 2.038Z"/>
</svg>
