<svg xmlns="http://www.w3.org/2000/svg" width="120" height="40" fill="none" viewBox="0 0 120 40">
  <g clip-path="url(#a)">
    <path fill="#121" d="m16.016 6.064 3.5 2.644-2.138 2.72c1.476 1.67 2.02 3.577 2.02 5.677 0 2.37-.894 5.714-4.044 7.152 3.188 1.594 3.964 3.888 3.964 6.338 0 5.288-4.044 8.552-9.602 8.552C4.158 39.147 0 35.765 0 30.595h4.702c0 2.488 2.294 4.12 5.014 4.12s4.858-1.476 4.858-4.12-2.488-3.85-4.858-3.85C3.732 26.745 0 23.093 0 17.105s4.352-9.72 9.72-9.72c1.517 0 3.07.194 4.393 1.088l1.903-2.409ZM4.702 17.104c0 3.345 2.256 5.327 5.014 5.327 2.72 0 4.976-2.02 4.976-5.326 0-3.306-2.252-5.403-4.972-5.403-2.762 0-5.018 2.059-5.018 5.403ZM54.988 0v27.175h-4.702V0h4.702Zm21.13 17.61c0 5.52-3.77 9.99-9.99 9.99-6.22 0-9.952-4.47-9.952-9.99 0-5.482 3.808-9.99 9.914-9.99 6.105 0 10.028 4.508 10.028 9.99Zm-15.201 0c0 2.915 1.75 5.639 5.208 5.639s5.208-2.72 5.208-5.639c0-2.876-2.02-5.676-5.208-5.676-3.42 0-5.209 2.8-5.209 5.676ZM82.047 0v10.614c1.126-1.982 4.276-3.07 6.296-3.07 5.596 0 9.758 3.42 9.758 10.028 0 6.297-4.238 10.029-9.872 10.029-2.332 0-4.703-.776-6.182-3.07l-.312 2.644h-4.432V0h4.744Zm.308 17.572c0 3.459 2.564 5.638 5.558 5.638 3.032 0 5.444-2.294 5.444-5.638 0-3.458-2.412-5.596-5.444-5.596-2.99-.004-5.558 2.252-5.558 5.596Zm22.797 3.341c1.102 2.12 3.625 3.025 6.767 1.881 1.643-.599 3.573-2.002 4.211-3.434l3.874 1.775c-1.182 2.664-3.94 4.744-6.681 5.742-6.21 2.259-11.296-.233-13.396-6.006-1.996-5.478.294-10.78 6.14-12.908 6.026-2.193 11.147.163 13.15 7.832l-14.065 5.118Zm8.448-7.253c-1.143-2.232-3.396-2.734-5.953-1.805-2.412.876-3.957 2.765-3.763 5.34l9.716-3.535Z"/>
    <path fill="#fff" fill-rule="evenodd" d="M43.239 13.038C41.7 9.83 38.496 7.62 34.22 7.62c-6.105 0-9.913 4.508-9.913 9.99 0 3.5 1.5 6.578 4.183 8.362a9.26 9.26 0 0 0 .245-.189 67.842 67.842 0 0 0 3.915-2.755c-2.394-.705-3.603-2.995-3.603-5.418 0-2.876 1.791-5.676 5.208-5.676 3.009 0 4.977 2.495 5.189 5.193a67.631 67.631 0 0 0 3.794-4.09Zm-9.464 14.554a67.79 67.79 0 0 0 10.445-9.146c-.361 5.129-4.058 9.155-9.96 9.155-.164 0-.325-.003-.485-.01Z" clip-rule="evenodd"/>
    <path fill="#fff" d="M47.104 4.935c-4.844-1.782-8.326 2.05-8.326 2.05l3.302 1.92c1.237-.71 1.788-.02 1.93.358.1.266-.035.558-.142.717l-.804 1.015A67.73 67.73 0 0 1 27.932 24.49s-1.719 1.386-2.633 1.407c-.77.017-1.113-.63-.465-1.56L23.24 20.74s-4.147 2.716-3.344 7.492c.34 2.016 2.235 3.45 4.249 3.087 1.029-.184 2.3-.686 3.856-1.715l2.862-1.871A67.774 67.774 0 0 0 45.996 14.21l.984-1.189c1.483-1.687 2.148-3.077 2.373-4.175.347-1.68-.648-3.323-2.249-3.912Z"/>
  </g>
  <defs>
    <clipPath id="a">
      <path fill="#fff" d="M0 0h120v39.147H0z"/>
    </clipPath>
  </defs>
</svg>
