<svg xmlns="http://www.w3.org/2000/svg" width="24" height="24" fill="none" viewBox="0 0 24 24">
  <path fill="#121" d="M20.25 10.814a3.724 3.724 0 0 0-1.5-.314H5.25a3.754 3.754 0 0 0-3.75 3.75v5.25a.75.75 0 1 0 1.5 0v-.375a.38.38 0 0 1 .375-.375h17.25a.38.38 0 0 1 .375.375v.375a.75.75 0 1 0 1.5 0v-5.25a3.754 3.754 0 0 0-2.25-3.436ZM17.625 3.75H6.375A2.625 2.625 0 0 0 3.75 6.375V9.75a.187.187 0 0 0 .24.18c.409-.12.833-.18 1.26-.18h.198a.188.188 0 0 0 .188-.166A1.5 1.5 0 0 1 7.125 8.25H9.75a1.5 1.5 0 0 1 1.49 1.334.188.188 0 0 0 .188.166h1.147a.187.187 0 0 0 .187-.166A1.5 1.5 0 0 1 14.25 8.25h2.625a1.5 1.5 0 0 1 1.49 1.334.188.188 0 0 0 .188.166h.197c.427 0 .851.06 1.26.18a.188.188 0 0 0 .24-.18V6.375a2.625 2.625 0 0 0-2.625-2.625Z"/>
</svg>
