<svg xmlns="http://www.w3.org/2000/svg" width="111" height="36" fill="none" viewBox="0 0 111 36">
  <g clip-path="url(#a)">
    <path fill="#fff" d="m14.728 5.577 3.219 2.431-1.966 2.502c1.357 1.536 1.857 3.288 1.857 5.22 0 2.18-.822 5.254-3.719 6.577 2.932 1.466 3.646 3.575 3.646 5.828 0 4.863-3.719 7.865-8.83 7.865C3.824 36 0 32.89 0 28.135h4.324c0 2.288 2.11 3.79 4.611 3.79 2.502 0 4.468-1.358 4.468-3.79 0-2.431-2.288-3.54-4.468-3.54C3.432 24.595 0 21.236 0 15.73c0-5.507 4.002-8.94 8.938-8.94 1.396 0 2.823.18 4.04 1.001l1.75-2.214ZM4.324 15.729c0 3.076 2.075 4.898 4.611 4.898 2.502 0 4.576-1.857 4.576-4.897s-2.071-4.97-4.573-4.97c-2.54 0-4.614 1.893-4.614 4.969ZM50.567 0v24.99h-4.324V0h4.324Zm19.432 16.195c0 5.076-3.467 9.187-9.187 9.187-5.72 0-9.152-4.11-9.152-9.187 0-5.042 3.502-9.187 9.117-9.187 5.614 0 9.222 4.145 9.222 9.187Zm-13.98 0c0 2.68 1.61 5.184 4.79 5.184 3.18 0 4.79-2.501 4.79-5.184 0-2.645-1.859-5.22-4.79-5.22-3.145 0-4.79 2.575-4.79 5.22ZM75.45 0v9.76c1.036-1.822 3.933-2.823 5.79-2.823 5.147 0 8.974 3.146 8.974 9.223 0 5.79-3.897 9.222-9.079 9.222-2.144 0-4.324-.714-5.684-2.823l-.287 2.431h-4.076V0h4.363Zm.284 16.16c0 3.18 2.358 5.184 5.112 5.184 2.788 0 5.006-2.11 5.006-5.184 0-3.18-2.218-5.147-5.006-5.147-2.75-.003-5.112 2.072-5.112 5.147Zm20.965 3.072c1.013 1.95 3.333 2.782 6.223 1.73 1.51-.551 3.285-1.842 3.872-3.158l3.562 1.632c-1.086 2.45-3.623 4.362-6.143 5.28-5.71 2.078-10.389-.214-12.32-5.523-1.835-5.038.271-9.913 5.647-11.87 5.541-2.017 10.251.15 12.093 7.202l-12.934 4.707Zm7.768-6.67c-1.051-2.052-3.122-2.514-5.474-1.66-2.218.806-3.639 2.543-3.46 4.91l8.934-3.25Z"/>
    <path fill="#fff" fill-rule="evenodd" d="M39.763 11.99c-1.414-2.95-4.361-4.982-8.293-4.982-5.614 0-9.116 4.145-9.116 9.187 0 3.218 1.379 6.049 3.847 7.69.14-.106.225-.174.225-.174a62.402 62.402 0 0 0 3.6-2.534c-2.202-.648-3.313-2.755-3.313-4.982 0-2.645 1.647-5.22 4.79-5.22 2.766 0 4.576 2.294 4.771 4.775a62.21 62.21 0 0 0 3.489-3.76ZM31.06 25.374a62.346 62.346 0 0 0 9.605-8.41c-.332 4.716-3.731 8.418-9.16 8.418-.15 0-.298-.003-.445-.008Z" clip-rule="evenodd"/>
    <path fill="#fff" d="M43.318 4.538C38.863 2.9 35.66 6.424 35.66 6.424l3.036 1.766c1.138-.653 1.645-.02 1.775.328.093.245-.032.513-.13.66l-.74.933a62.282 62.282 0 0 1-13.915 12.41s-1.58 1.274-2.422 1.293c-.707.016-1.023-.58-.427-1.434l-1.466-3.308s-3.814 2.499-3.075 6.89c.313 1.855 2.055 3.174 3.907 2.84.946-.17 2.116-.632 3.546-1.578l2.633-1.72a62.325 62.325 0 0 0 13.915-12.435l.905-1.093c1.364-1.552 1.976-2.83 2.183-3.84.319-1.546-.596-3.056-2.068-3.598Z"/>
  </g>
  <defs>
    <clipPath id="a">
      <path fill="#fff" d="M0 0h110.353v36H0z"/>
    </clipPath>
  </defs>
</svg>
