<svg xmlns="http://www.w3.org/2000/svg" width="938" height="306" fill="none" viewBox="0 0 938 306">
  <g clip-path="url(#a)">
    <path fill="#121" d="m125.189 47.402 27.357 20.667-16.712 21.263c11.539 13.056 15.791 27.954 15.791 44.369 0 18.527-6.988 44.666-31.609 55.907 24.919 12.46 30.986 30.391 30.986 49.542 0 41.334-31.609 66.85-75.054 66.85S0 279.563 0 239.15h36.755c0 19.448 17.93 32.206 39.193 32.206 21.262 0 37.974-11.539 37.974-32.206 0-20.668-19.448-30.094-37.974-30.094C29.17 209.056 0 180.507 0 133.701c0-46.806 34.02-75.979 75.975-75.979 11.864 0 23.998 1.517 34.344 8.505l14.87-18.825Zm-88.434 86.299c0 26.138 17.633 41.632 39.193 41.632 21.262 0 38.895-15.792 38.895-41.632 0-25.841-17.606-42.229-38.868-42.229-21.587 0-39.22 16.09-39.22 42.229ZM429.821 0v212.415h-36.756V0h36.756Zm165.168 137.655c0 43.15-29.469 78.092-78.088 78.092-48.619 0-77.79-34.942-77.79-78.092 0-42.851 29.767-78.091 77.492-78.091 47.725 0 78.386 35.24 78.386 78.091Zm-118.825 0c0 22.78 13.679 44.071 40.71 44.071s40.71-21.264 40.71-44.071c0-22.482-15.791-44.368-40.71-44.368-26.733 0-40.71 21.886-40.71 44.368ZM641.332 0v82.967c8.803-15.494 33.424-23.999 49.215-23.999 43.743 0 76.272 26.735 76.272 78.389 0 49.217-33.125 78.39-77.166 78.39-18.229 0-36.755-6.068-48.321-23.999l-2.438 20.667h-34.642V0h37.08Zm2.411 137.357c0 27.033 20.043 44.071 43.445 44.071 23.7 0 42.551-17.932 42.551-44.071 0-27.032-18.851-43.745-42.551-43.745-23.375-.027-43.445 17.607-43.445 43.745Zm178.195 26.112c8.613 16.577 28.332 23.647 52.898 14.708 12.839-4.686 27.926-15.656 32.909-26.843l30.282 13.869c-9.236 20.829-30.796 37.082-52.221 44.883-48.537 17.66-88.299-1.815-104.713-46.942-15.601-42.824 2.302-84.267 47.996-100.898 47.102-17.146 87.134 1.273 102.789 61.216l-109.94 40.007Zm66.035-56.693c-8.938-17.444-26.544-21.371-46.533-14.112-18.852 6.853-30.932 21.615-29.415 41.741l75.948-27.629Z"/>
    <path fill="#8DD3BB" fill-rule="evenodd" d="M337.982 101.913c-12.017-25.07-37.068-42.349-70.485-42.349-47.725 0-77.492 35.24-77.492 78.091 0 27.358 11.726 51.416 32.7 65.361a73.078 73.078 0 0 0 1.915-1.475A530.48 530.48 0 0 0 255.219 180c-18.712-5.506-28.161-23.411-28.161-42.345 0-22.482 14.003-44.368 40.71-44.368 23.518 0 38.906 19.496 40.561 40.589a529.028 529.028 0 0 0 29.653-31.963Zm-73.971 113.762a529.946 529.946 0 0 0 81.643-71.489c-2.826 40.09-31.719 71.561-77.859 71.561-1.275 0-2.536-.024-3.784-.072Z" clip-rule="evenodd"/>
    <path fill="#8DD3BB" d="M368.201 38.572c-37.866-13.923-65.087 16.035-65.087 16.035l25.813 15.006c9.669-5.553 13.976-.162 15.086 2.79.786 2.086-.27 4.361-1.11 5.607l-6.284 7.937a529.398 529.398 0 0 1-118.283 105.476s-13.434 10.834-20.585 10.997c-6.013.135-8.694-4.93-3.629-12.189l-12.459-28.116s-32.422 21.236-26.138 58.561c2.654 15.765 17.47 26.979 33.207 24.135 8.044-1.436 17.985-5.363 30.146-13.408l22.373-14.627a529.79 529.79 0 0 0 118.282-105.693l7.693-9.291c11.592-13.19 16.793-24.053 18.553-32.64 2.709-13.136-5.065-25.976-17.578-30.58Z"/>
  </g>
  <defs>
    <clipPath id="a">
      <path fill="#fff" d="M0 0h938v306H0z"/>
    </clipPath>
  </defs>
</svg>
