<svg xmlns="http://www.w3.org/2000/svg" width="16" height="16" fill="none" viewBox="0 0 16 16">
  <path fill="#000" stroke="#121" stroke-width=".047" d="m13.992 1.072-12.5 4.731-.009.003A.727.727 0 0 0 1.52 7.17l.013.004h.002l4.29 1.833a.477.477 0 0 0 .461-.108l6.886-6.416a.244.244 0 0 1 .346.346L7.1 9.712l6.893-8.64Zm0 0a.727.727 0 0 1 .772.165m-.771-.165.771.165m0 0a.727.727 0 0 1 .164.774l-4.731 12.497 4.568-13.271ZM9.47 15h.03a.77.77 0 0 0 .72-.483l-.022-.008a.746.746 0 0 1-.697.467h-.03M9.468 15v-.024m0 .024v-.024m0 .024a.735.735 0 0 1-.665-.526L6.97 10.181m2.498 4.796a.711.711 0 0 1-.637-.492v-.001a.254.254 0 0 1-.006-.016v-.003l-1.833-4.292m0 0v.001l-.022.007m.022-.008a.477.477 0 0 1 .107-.461l-.138.211a.5.5 0 0 0 .009.258m.022-.008v-.001l-.022.01"/>
</svg>
